<?xml version="1.0" standalone="no"?><!DOCTYPE svg PUBLIC "-//W3C//DTD SVG 1.1//EN" "http://www.w3.org/Graphics/SVG/1.1/DTD/svg11.dtd"><svg t="1569293631639" class="icon" viewBox="0 0 1024 1024" version="1.1" xmlns="http://www.w3.org/2000/svg" p-id="4545" xmlns:xlink="http://www.w3.org/1999/xlink" width="200" height="200"><defs><style type="text/css"></style></defs><path d="M470.162286 24.356571a58.514286 58.514286 0 0 1 76.068571 0l394.459429 337.773715a58.514286 58.514286 0 0 1 20.48 44.397714v549.449143a58.514286 58.514286 0 0 1-58.514286 58.514286h-98.230857a58.514286 58.514286 0 1 1 0-117.028572h39.716571V433.444571L508.196571 145.846857 172.324571 433.444571v464.018286h40.082286a58.514286 58.514286 0 1 1 0 117.028572H113.810286a58.514286 58.514286 0 0 1-58.514286-58.514286V406.528a58.514286 58.514286 0 0 1 20.48-44.397714z m38.034285 523.483429a206.262857 206.262857 0 0 1 206.409143 206.774857v201.362286a58.514286 58.514286 0 1 1-117.028571 0v-201.362286A89.234286 89.234286 0 0 0 508.196571 664.868571a89.234286 89.234286 0 0 0-89.380571 89.746286v201.362286a58.514286 58.514286 0 1 1-117.028571 0v-201.362286A206.262857 206.262857 0 0 1 508.196571 547.84z" fill="#999999" p-id="4546"></path></svg>