<?xml version="1.0" encoding="UTF-8"?>
<svg width="14px" height="14px" viewBox="0 0 14 14" version="1.1" xmlns="http://www.w3.org/2000/svg" xmlns:xlink="http://www.w3.org/1999/xlink">
    <!-- Generator: Sketch 57 (83077) - https://sketch.com -->
    <title>icon/决策集合@1x</title>
    <desc>Created with Sketch.</desc>
    <g id="icon/决策集合" stroke="none" stroke-width="1" fill="none" fill-rule="evenodd">
        <path d="M2.6,11.4034729 L12.1478686,11.4034729 C12.6203785,11.4034729 13.0034234,11.7616451 13.0034234,12.2034729 C13.0034234,12.6453007 12.6203785,13.0034729 12.1478686,13.0034729 L1.85897827,13.0034729 C1.83018534,13.0034729 1.80172462,13.0021429 1.77366252,12.9995451 C1.56838592,12.9924442 1.38265298,12.9026379 1.24464954,12.7602693 C1.10119917,12.6219108 1.01073218,12.4352442 1.00384673,12.2288806 C1.00130231,12.2011037 1,12.1729371 1,12.1444452 L1,1.85555484 C1,1.38304495 1.3581722,1 1.8,1 C2.2418278,1 2.6,1.38304495 2.6,1.85555484 L2.6,11.4034729 Z M10.9444452,8.2 C11.416955,8.2 11.8,8.5581722 11.8,9 C11.8,9.4418278 11.416955,9.8 10.9444452,9.8 L4.65555484,9.8 C4.18304495,9.8 3.8,9.4418278 3.8,9 C3.8,8.5581722 4.18304495,8.2 4.65555484,8.2 L10.9444452,8.2 Z M10.9444452,2.2 C11.416955,2.2 11.8,2.5581722 11.8,3 C11.8,3.4418278 11.416955,3.8 10.9444452,3.8 L4.65555484,3.8 C4.18304495,3.8 3.8,3.4418278 3.8,3 C3.8,2.5581722 4.18304495,2.2 4.65555484,2.2 L10.9444452,2.2 Z M7.94444516,5.2 C8.41695505,5.2 8.8,5.5581722 8.8,6 C8.8,6.4418278 8.41695505,6.8 7.94444516,6.8 L4.65555484,6.8 C4.18304495,6.8 3.8,6.4418278 3.8,6 C3.8,5.5581722 4.18304495,5.2 4.65555484,5.2 L7.94444516,5.2 Z" id="形状" fill="#999999" fill-rule="nonzero"></path>
    </g>
</svg>